HIERARCHY
ROOT Hips
{
 OFFSET 0.000000 0.000000 0.000000
 CHANNELS 6 Xposition Yposition Zposition Yrotation Xrotation Zrotation
 JOINT Chest
 {
  OFFSET 0.000000 10.354800 0.006500
  CHANNELS 3 Yrotation Xrotation Zrotation
  JOINT Chest2
  {
   OFFSET 0.000000 10.435800 -0.013200
   CHANNELS 3 Yrotation Xrotation Zrotation
   JOINT Chest3
   {
    OFFSET 0.000000 10.393700 0.000000
    CHANNELS 3 Yrotation Xrotation Zrotation
    JOINT Chest4
    {
     OFFSET 0.000000 10.383100 0.000000
     CHANNELS 3 Yrotation Xrotation Zrotation
     JOINT Neck
     {
      OFFSET 0.000000 15.694000 0.000000
      CHANNELS 3 Yrotation Xrotation Zrotation
      JOINT Head
      {
       OFFSET 0.000000 9.711000 -0.028000
       CHANNELS 3 Yrotation Xrotation Zrotation
       End Site
       {
        OFFSET 0.000000 18.578700 -0.014800
       }
      }
     }
     JOINT RightCollar
     {
      OFFSET -3.157200 10.367500 0.000000
      CHANNELS 3 Yrotation Xrotation Zrotation
      JOINT RightShoulder
      {
       OFFSET -14.482500 0.000000 0.000000
       CHANNELS 3 Yrotation Xrotation Zrotation
       JOINT RightElbow
       {
        OFFSET 0.000000 -31.707800 0.000000
        CHANNELS 3 Yrotation Xrotation Zrotation
        JOINT RightWrist
        {
         OFFSET 0.000000 -25.659300 0.000000
         CHANNELS 3 Yrotation Xrotation Zrotation
         End Site
         {
          OFFSET 0.000000 -18.994300 0.000000
         }
        }
       }
      }
     }
     JOINT LeftCollar
     {
      OFFSET 3.157200 10.367500 0.000000
      CHANNELS 3 Yrotation Xrotation Zrotation
      JOINT LeftShoulder
      {
       OFFSET 14.482500 0.000000 0.000000
       CHANNELS 3 Yrotation Xrotation Zrotation
       JOINT LeftElbow
       {
        OFFSET 0.000000 -31.707800 0.000000
        CHANNELS 3 Yrotation Xrotation Zrotation
        JOINT LeftWrist
        {
         OFFSET 0.000000 -25.659300 0.000000
         CHANNELS 3 Yrotation Xrotation Zrotation
         End Site
         {
          OFFSET 0.000000 -18.994300 0.000000
         }
        }
       }
      }
     }
    }
   }
  }
 }
 JOINT RightHip
 {
  OFFSET -8.365600 -0.032100 -0.003200
  CHANNELS 3 Yrotation Xrotation Zrotation
  JOINT RightKnee
  {
   OFFSET 0.000000 -43.980000 0.003100
   CHANNELS 3 Yrotation Xrotation Zrotation
   JOINT RightAnkle
   {
    OFFSET 0.000000 -42.882800 0.005200
    CHANNELS 3 Yrotation Xrotation Zrotation
    JOINT RightToe
    {
     OFFSET 0.000000 -4.915500 10.826300
     CHANNELS 3 Yrotation Xrotation Zrotation
     End Site
     {
      OFFSET 0.000000 -1.517500 6.175900
     }
    }
   }
  }
 }
 JOINT LeftHip
 {
  OFFSET 8.365600 -0.032100 -0.003200
  CHANNELS 3 Yrotation Xrotation Zrotation
  JOINT LeftKnee
  {
   OFFSET 0.000000 -43.980000 0.003100
   CHANNELS 3 Yrotation Xrotation Zrotation
   JOINT LeftAnkle
   {
    OFFSET 0.000000 -42.882800 0.005200
    CHANNELS 3 Yrotation Xrotation Zrotation
    JOINT LeftToe
    {
     OFFSET 0.000000 -4.915500 10.826300
     CHANNELS 3 Yrotation Xrotation Zrotation
     End Site
     {
      OFFSET 0.000000 -1.517500 6.175900
     }
    }
   }
  }
 }
}
MOTION
Frames: 6
Frame Time: 0.008333
-1.588912 126.397458 38.649771 173.303489 -18.631251 -2.927459 -0.403376 12.623122 3.875994 -0.055515 1.013438 0.305301 -0.113836 1.708544 0.537876 -0.398308 11.431755 3.507114 -0.643920 18.426593 -3.583892 0.101449 -6.260662 -3.611539 3.432095 7.029294 -4.234296 -4.420092 -9.082414 -3.842330 -120.098406 -62.160141 139.775786 -19.584222 -12.332202 -33.835299 -3.243696 8.247247 -0.202312 6.405817 -13.304990 -7.369917 161.168316 -72.632495 179.272889 17.388976 0.778410 32.087071 9.075445 -62.433339 -5.643045 -100.286823 77.703821 -93.325283 5.126826 2.602763 -16.902445 0.002720 -0.003924 0.001235 -20.663192 -63.934071 3.918888 119.634844 84.876621 112.499431 -5.220324 -24.126762 -0.426715 -0.003139 -0.002096 -0.001425
-1.580803 126.397335 38.653658 173.276880 -18.622191 -2.951768 -0.379325 12.609002 3.914041 -0.072673 1.001743 0.320542 -0.104450 1.714064 0.529512 -0.397476 11.431712 3.505515 -0.651926 18.426922 -3.576421 0.091417 -6.257739 -3.611372 3.437548 7.035747 -4.220215 -4.417479 -9.137318 -3.852223 -120.060525 -62.117648 139.722823 -19.587116 -12.306796 -33.843136 -3.238905 8.263165 -0.209490 6.418901 -13.279905 -7.379149 161.260127 -72.611437 179.188392 17.395085 0.787836 32.074626 9.023512 -62.449751 -5.572055 -100.282160 77.717304 -93.334950 5.472912 2.612195 -16.991311 0.054733 -0.032171 0.024838 -20.708354 -63.930514 4.008283 119.620520 84.871175 112.483882 -5.236870 -24.123454 -0.427518 -0.011689 -0.001524 -0.005307
-1.584392 126.398040 38.651836 173.274149 -18.636641 -2.916402 -0.394632 12.617147 3.884975 -0.071185 1.001423 0.319909 -0.100663 1.717403 0.525736 -0.405645 11.422881 3.514134 -0.674512 18.421716 -3.560024 0.110304 -6.244969 -3.640423 3.438319 7.040984 -4.187120 -4.415507 -9.190274 -3.879059 -119.988433 -62.118777 139.655634 -19.624613 -12.312711 -33.827373 -3.244054 8.293496 -0.209493 6.443775 -13.259408 -7.405891 161.469991 -72.585079 179.008728 17.358160 0.834850 32.070627 9.073770 -62.434753 -5.621483 -100.281957 77.712021 -93.333131 5.357176 2.606971 -16.952414 0.014515 -0.009736 0.006589 -20.621661 -63.922176 3.930736 119.462433 84.848710 112.316475 -5.291650 -24.107513 -0.421307 -0.005783 -0.000485 -0.002625
-1.584981 126.398269 38.652430 173.271118 -18.640147 -2.899738 -0.403082 12.615466 3.875716 -0.071188 0.998920 0.318752 -0.097492 1.721920 0.522462 -0.410665 11.416371 3.519772 -0.685901 18.424551 -3.555967 0.113537 -6.242042 -3.648655 3.441055 7.048869 -4.177036 -4.418510 -9.217674 -3.889067 -119.977249 -62.019454 139.646565 -19.632984 -12.261445 -33.824475 -3.243042 8.308304 -0.216987 6.455323 -13.219989 -7.425045 161.688659 -72.565539 178.862253 17.327229 0.886372 32.019846 9.100344 -62.430869 -5.645676 -100.281278 77.711089 -93.331192 5.271073 2.605546 -16.934626 0.005530 -0.004547 0.002510 -20.578854 -63.920441 3.894414 119.371495 84.846966 112.223596 -5.304803 -24.100150 -0.416638 -0.007212 -0.001654 -0.003274
-1.581056 126.398532 38.654229 173.257998 -18.641170 -2.906048 -0.398084 12.608060 3.890748 -0.067313 0.999603 0.319673 -0.105550 1.712775 0.530176 -0.406098 11.426201 3.511684 -0.691880 18.428615 -3.556950 0.092280 -6.242823 -3.630945 3.440450 7.055668 -4.166461 -4.423293 -9.247267 -3.896872 -119.967201 -61.914914 139.643068 -19.723703 -12.263432 -33.779836 -3.256277 8.338260 -0.204744 6.480184 -13.216590 -7.460404 161.727389 -72.550953 178.839532 17.291881 0.954777 32.026895 9.078321 -62.434813 -5.615443 -100.277198 77.714556 -93.327556 5.371324 2.608840 -16.967640 0.019957 -0.013234 0.009059 -20.568212 -63.912631 3.915684 119.383517 84.858230 112.240449 -5.315669 -24.087194 -0.416410 -0.006341 0.001381 -0.002879
-1.582348 126.399156 38.653450 173.261754 -18.652384 -2.887762 -0.409459 12.611095 3.877685 -0.066634 1.001203 0.318945 -0.105831 1.712329 0.530239 -0.406506 11.431212 3.506790 -0.698974 18.428232 -3.551561 0.068396 -6.240990 -3.612306 3.438038 7.058453 -4.151469 -4.440843 -9.294610 -3.892840 -119.903707 -61.900669 139.599215 -19.814218 -12.304668 -33.726525 -3.259415 8.346556 -0.203329 6.487999 -13.196609 -7.476458 161.767996 -72.532035 178.797501 17.349372 0.979601 32.025496 9.057721 -62.425068 -5.596715 -100.257790 77.701592 -93.323345 5.138560 2.606404 -16.926198 0.005065 -0.005249 0.002300 -20.521992 -63.907919 3.863744 119.340320 84.858639 112.196246 -5.299864 -24.068307 -0.421333 -0.006376 0.000659 -0.002895
